#!OML:ASF E:\Mandelcareful walks\Project 1\Capture day 1\Session 1\Subject1.ASF
:FULLY-SPECIFIED
:DEGREES
367
root 0.621758 16.5598 -15.3864 179.559 261.465 -168.999
lowerback -4.47897 -3.23925 -3.21401
upperback 1.30793 -4.15001 0.493459
thorax 4.12762 -2.14873 1.96723
lowerneck -23.2016 11.2276 3.29561
upperneck 36.7901 20.1965 -12.5306
head 20.4532 6.06206 -1.8737
rclavicle -3.20913e-014 6.55989e-015
rhumerus -58.9723 12.7009 -74.1249
rradius 58.0545
rwrist -15.2977
rhand 0.427271 -17.6105
rfingers 7.12502
rthumb 25.9996 -45.8518
lclavicle -3.20913e-014 6.55989e-015
lhumerus -41.4958 -25.4934 91.1434
lradius 96.5714
lwrist 26.411
lhand -28.2389 -25.4908
lfingers 7.12502
lthumb -1.61667 4.48287
rfemur -40.5 -5.26667 8.13069
rtibia 27.5258
rfoot 0.12641 -12.8388
rtoes -20.7304
lfemur 11.0989 1.3943 -28.0143
ltibia 33.5297
lfoot 2.68599 13.7478
ltoes 12.6625
368
root 0.0105765 16.3902 -15.3568 176.496 261.598 -167.185
lowerback -3.93816 -2.96581 -2.93003
upperback 1.67623 -3.80669 0.206066
thorax 4.14383 -1.97289 1.56086
lowerneck -23.1807 11.1468 3.26504
upperneck 36.8144 20.0897 -12.5177
head 20.4406 6.02107 -1.89328
rclavicle -5.89645e-014 -1.10822e-014
rhumerus -57.8804 13.8164 -73.4142
rradius 58.1838
rwrist -15.3276
rhand 0.183121 -17.0887
rfingers 7.12502
rthumb 25.7658 -45.3642
lclavicle -5.89645e-014 -1.10822e-014
lhumerus -41.6373 -25.6113 91.0255
lradius 94.3118
lwrist 27.3242
lhand -28.915 -21.9358
lfingers 7.12502
lthumb -2.26957 8.0319
rfemur -39.1631 -7.51639 9.32108
rtibia 29.6559
rfoot 2.41669 -10.7887
rtoes -20.9781
lfemur 10.199 2.52156 -28.3913
ltibia 40.8518
lfoot -0.366603 18.1915
ltoes 10.5262
369
root -0.565781 16.1887 -15.3341 176.584 261.46 -169.185
lowerback -2.27259 -2.83149 -2.30714
upperback 2.14461 -3.70203 0.0803473
thorax 3.63273 -1.90732 1.16786
lowerneck -22.8188 11.2447 3.77621
upperneck 36.2177 20.2281 -13.2402
head 20.2234 6.11359 -2.27473
rclavicle 2.95692e-015 -5.91384e-015
rhumerus -55.981 15.0577 -72.6536
rradius 57.9789
rwrist -15.4328
rhand -0.477205 -17.3154
rfingers 7.12502
rthumb 25.1332 -45.6811
lclavicle 2.95692e-015 -5.91384e-015
lhumerus -42.0614 -25.4909 91.038
lradius 91.0638
lwrist 28.8122
lhand -29.5182 -20.5325
lfingers 7.12502
lthumb -2.8522 9.42817
rfemur -37.2159 -9.53756 10.7411
rtibia 32.8457
rfoot 3.87401 -4.84755
rtoes -3.94344
lfemur 9.45363 3.33324 -28.0787
ltibia 48.5962
lfoot -3.27049 21.1312
ltoes 8.89039
370
root -1.11199 15.9393 -15.3076 182.714 261.631 -176.762
lowerback -0.774339 -2.58836 -0.825633
upperback 2.34519 -3.45642 0.239423
thorax 2.90428 -1.75246 0.591392
lowerneck -22.3169 11.3383 4.07981
upperneck 35.7929 20.3402 -13.6654
head 19.9768 6.20435 -2.49752
rclavicle -1.16538e-014 4.37326e-015
rhumerus -54.218 16.4167 -71.8479
rradius 58.0597
rwrist -15.656
rhand -1.47761 -17.6989
rfingers 7.12502
rthumb 24.1743 -46.1955
lclavicle -1.16538e-014 4.37326e-015
lhumerus -42.5442 -24.9574 91.2032
lradius 86.9106
lwrist 29.6332
lhand -29.326 -19.4075
lfingers 7.12502
lthumb -2.66653 10.5555
rfemur -35.1427 -10.5094 12.644
rtibia 36.4641
rfoot -4.32122 -1.68446
rtoes -7.8108
lfemur 7.69209 4.00296 -26.8954
ltibia 56.6245
lfoot -5.90379 22.5943
ltoes 8.36432
371
root -1.6556 15.7526 -15.2629 192.331 261.885 -188.191
lowerback 1.51208 -2.27258 1.03806
upperback 2.57217 -3.06461 0.621076
thorax 1.76943 -1.53155 0.0540003
lowerneck -21.7964 11.4242 4.2898
upperneck 35.3469 20.5121 -14.1876
head 19.7371 6.29267 -2.73535
rclavicle -5.8393e-016 -1.36664e-015
rhumerus -52.1904 17.7243 -70.8525
rradius 58.1923
rwrist -15.5903
rhand -2.56731 -17.9798
rfingers 7.12502
rthumb 23.1292 -46.6114
lclavicle -5.8393e-016 -1.36664e-015
lhumerus -42.9182 -23.7182 91.5078
lradius 82.5309
lwrist 29.3931
lhand -29.3107 -15.8225
lfingers 7.12502
lthumb -2.65176 14.1407
rfemur -33.7614 -9.94752 14.2378
rtibia 40.5138
rfoot -7.74839 -2.02362
rtoes -13.0013
lfemur 6.25706 4.76377 -25.1436
ltibia 64.5421
lfoot -9.28894 20.5389
ltoes 6.4794
372
root -2.22277 15.5489 -15.1856 207.521 263.018 -206.23
lowerback 4.5636 -1.58212 3.34951
upperback 3.15192 -2.0568 1.04162
thorax 0.606627 -1.01719 -0.724631
lowerneck -21.1343 11.5766 4.56594
upperneck 34.838 20.8409 -14.953
head 19.5229 6.42835 -3.06184
rclavicle 1.58966e-014 -1.18525e-014
rhumerus -50.002 19.0701 -69.8072
rradius 58.5843
rwrist -15.2326
rhand -4.17686 -18.4944
rfingers 7.12502
rthumb 21.5841 -47.3116
lclavicle 1.58966e-014 -1.18525e-014
lhumerus -43.5005 -22.0232 92.0567
lradius 77.4076
lwrist 27.9695
lhand -27.6833 -13.8422
lfingers 7.12502
lthumb -1.08005 16.1348
rfemur -31.1091 -8.76449 16.0528
rtibia 44.0778
rfoot -10.3314 -3.05684
rtoes -0.59184
lfemur 5.43297 6.75057 -22.7926
ltibia 71.8827
lfoot -10.8581 18.1186
ltoes 4.19634
373
root -2.66066 15.3611 -15.148 212.867 261.005 -212.549
lowerback 7.31167 -1.86267 5.23126
upperback 3.15789 -2.19913 1.6991
thorax -0.952881 -1.11198 -1.00122
lowerneck -21.1184 11.7066 4.6482
upperneck 34.0846 21.2645 -15.8698
head 19.3675 6.54183 -3.35281
rclavicle 3.31846e-014 -1.59028e-014
rhumerus -46.5649 19.6955 -68.4604
rradius 57.6195
rwrist -14.0444
rhand -6.2452 -18.2488
rfingers 7.12502
rthumb 19.5966 -47.2812
lclavicle 3.31846e-014 -1.59028e-014
lhumerus -43.588 -20.5199 92.7122
lradius 71.8042
lwrist 25.6649
lhand -28.6327 -12.6069
lfingers 7.12502
lthumb -1.99696 17.3635
rfemur -29.9879 -9.52838 17.5124
rtibia 47.4745
rfoot -13.402 -3.97228
rtoes 1.10969
lfemur 1.22108 5.74861 -20.7018
ltibia 79.369
lfoot -11.5424 15.9039
ltoes 7.39438
374
root -3.17026 15.2765 -15.0687 217.813 260.227 -218.649
lowerback 8.83048 -1.76915 6.45713
upperback 3.80772 -1.93637 2.22479
thorax -1.11374 -0.988418 -1.12875
lowerneck -21.0083 11.9256 4.90235
upperneck 32.8148 21.7969 -17.1866
head 19.0354 6.72027 -3.79269
rclavicle -9.16894e-015 -1.98785e-015
rhumerus -42.5164 20.0653 -67.0216
rradius 56.5977
rwrist -11.8189
rhand -8.72199 -16.9552
rfingers 7.12502
rthumb 17.214 -46.2127
lclavicle -9.16894e-015 -1.98785e-015
lhumerus -43.1882 -18.6999 93.0239
lradius 66.339
lwrist 23.7373
lhand -29.367 -9.11992
lfingers 7.12502
lthumb -2.70619 20.8427
rfemur -27.9537 -9.229 18.3226
rtibia 49.8835
rfoot -17.3609 -2.53867
rtoes -21.5507
lfemur -2.86004 6.64856 -18.8386
ltibia 85.623
lfoot -12.4844 15.1422
ltoes -0.268439
375
root -3.64599 15.1561 -15.0094 216 259.885 -217.169
lowerback 9.70004 -1.67399 6.12209
upperback 4.19579 -1.80554 2.43289
thorax -1.16273 -0.933109 -0.721949
lowerneck -21.3057 12.2878 5.10317
upperneck 32.2056 22.4903 -17.9161
head 19.1017 6.9543 -3.92368
rclavicle -1.97791e-014 -1.98785e-015
rhumerus -39.2178 19.9624 -65.9062
rradius 56.6191
rwrist -10.0183
rhand -10.4127 -17.934
rfingers 7.12502
rthumb 15.5862 -47.326
lclavicle -1.97791e-014 -1.98785e-015
lhumerus -43.6358 -17.7209 93.7675
lradius 61.5752
lwrist 22.1519
lhand -29.5008 -1.75362
lfingers 7.12502
lthumb -2.8354 28.2073
rfemur -26.5033 -9.43836 17.8905
rtibia 51.7135
rfoot -19.0455 -3.93631
rtoes -18.3982
lfemur -8.19865 7.26523 -18.6431
ltibia 91.3089
lfoot -14.2216 15.1987
ltoes -1.80145
